<svg width="68" height="68" viewBox="0 0 68 68" fill="none" xmlns="http://www.w3.org/2000/svg">
<circle cx="34" cy="34" r="27.8333" stroke="#212121"/>
<path fill-rule="evenodd" clip-rule="evenodd" d="M41.5 25.5C41.5 29.6421 38.1421 33 34 33C29.8579 33 26.5 29.6421 26.5 25.5C26.5 21.3579 29.8579 18 34 18C38.1421 18 41.5 21.3579 41.5 25.5ZM42.5 25.5C42.5 30.1944 38.6944 34 34 34C29.3056 34 25.5 30.1944 25.5 25.5C25.5 20.8056 29.3056 17 34 17C38.6944 17 42.5 20.8056 42.5 25.5ZM34 61.3333C27.3932 61.3333 21.3358 58.9904 16.6101 55.0889C19.4491 48.2821 26.1673 43.5 34 43.5C41.8327 43.5 48.5509 48.2821 51.3899 55.089C46.6642 58.9905 40.6069 61.3333 34 61.3333ZM34 42.5C42.5103 42.5 49.7686 47.86 52.5834 55.3884C47.6087 59.7143 41.1102 62.3333 34 62.3333C26.8898 62.3333 20.3913 59.7143 15.4166 55.3883C18.2314 47.86 25.4897 42.5 34 42.5Z" fill="#212121"/>
</svg>
