<svg xmlns="http://www.w3.org/2000/svg" viewBox="0 0 999 999">
  
<g transform="matrix(2.4975,0,0,2.4975,0,0)"><g transform="matrix(2,0,0,2,0,0)"><g>
    <path d="M96,160.83a47.05,47.05,0,1,1,26.3-86.06.19.19,0,1,1-.21.31A46.68,46.68,0,1,0,96,160.46,47,47,0,0,0,141.54,124c.05-.25.42-.15.37.09A47.1,47.1,0,0,1,96,160.83Z" style="fill: #ea6399"></path>
    <path d="M152.49,22.79a12.23,12.23,0,0,0-10.18,1.53l-.2-.42a2.08,2.08,0,0,0-2.76-1l-1.48.7-1.7-3.56a7,7,0,0,0-9.34-3.31c-29.55,14.09-3.55,1.69-33,15.73a7,7,0,0,0-3.31,9.33l5.37,11.27a7,7,0,0,0,9.33,3.31l33-15.72a7,7,0,0,0,3.31-9.34l-1.19-2.49,1.49-.71a2.08,2.08,0,0,0,1-2.76l-.35-.72a11.84,11.84,0,0,1,9.89-1.51c5.59,2,8,8.71,6.76,13.74s-5.27,9.46-8,13.82c-4.66,7.41-6.62,13.09-3.62,21.85a.19.19,0,1,0,.36-.12c-3-8.67-1.12-14.06,3.58-21.53,2.76-4.39,6.79-8.8,8.07-13.93S158.27,24.86,152.49,22.79ZM105,56.06a6.63,6.63,0,0,1-8.83-3.13L90.84,41.66A6.62,6.62,0,0,1,94,32.83l5-2.41,11.06,23.24Zm5.38-2.56L99.36,30.26l10.79-5.14,11.07,23.24Zm11.14-5.3L110.49,25l10.79-5.14,11.07,23.24Zm20.11-20.4-1.48.71L138,24l1.48-.7a1.69,1.69,0,0,1,2.26.8l.71,1.47A1.7,1.7,0,0,1,141.67,27.8Z" style="fill: #ea6399"></path>
    <path d="M134.38,33.36a.5.5,0,0,1-.5-.5V29.09l-2.39,1.06a.5.5,0,0,1-.71-.45V25.16a.5.5,0,0,1,1,0v3.78l2.39-1.07a.5.5,0,0,1,.71.46v4.54A.5.5,0,0,1,134.38,33.36Z" style="fill: #ffffff"></path>
    <path d="M116.6,101.93l-9.8-2.34L64.32,55.71A36.1,36.1,0,0,0,48.8,70.62L66.68,90l-20.57-4.9c-4.06,6.3-5.82,12.94-4.9,20L93.34,119l4.51,4.89c6,6.48,16.09,10.42,25.05,8.08C123.86,131.83,119.72,110.88,116.6,101.93Z" style="fill: #ffd1d0"></path>
    <path d="M101.73,116.86c-.17-.18-.45.07-.29.25a27.9,27.9,0,0,0,2.82,2.73.19.19,0,0,0,.24-.29A26,26,0,0,1,101.73,116.86Z" style="fill: #8b0045"></path>
    <path d="M113.56,124.4a24.09,24.09,0,0,1-3.62-1.36.19.19,0,0,0-.16.34,23.84,23.84,0,0,0,3.67,1.38A.19.19,0,1,0,113.56,124.4Z" style="fill: #8b0045"></path>
    <path d="M71.5,105.55c3.31.86,3.72,1,3.82,1a.19.19,0,0,0,.05-.37l-3.78-1A.19.19,0,1,0,71.5,105.55Z" style="fill: #8b0045"></path>
    <path d="M61.5,102.59a.19.19,0,0,0-.1.37c3.31.86,3.72,1,3.82,1a.19.19,0,0,0,0-.38Z" style="fill: #8b0045"></path>
    <path d="M51.4,100a.19.19,0,0,0-.09.37c3.3.85,3.72,1,3.82,1a.19.19,0,0,0,0-.37Z" style="fill: #8b0045"></path>
    <path d="M164.11,136.4a6.93,6.93,0,1,1,6.28-9.84A6.93,6.93,0,0,1,164.11,136.4Zm0-13.48a6.55,6.55,0,1,0,6.16,8.81A6.54,6.54,0,0,0,164.09,122.92Z" style="fill: #ea6399"></path>
    <path d="M163.93,129.55,162,125.39a.19.19,0,1,1,.34-.16l1.84,4,3.92-1.81a.19.19,0,0,1,.16.34l-4.09,1.89A.19.19,0,0,1,163.93,129.55Z" style="fill: #ea6399"></path>
    <path d="M178.33,51.19c-.84-1.44-5.7-9.43-7.12-8.58-.89.55.58,4.22,2.37,7.78-1.38-.17-7.67-.94-7.91.4s5.72,3,10.26,3.92c.82,1.4,5.24,8.65,6.87,8.65s-1.33-6.29-2.12-7.86c1.37.18,7.67,1,7.91-.39S182.87,52.1,178.33,51.19Zm-6.93-8.25c1-.6,5.67,6.86,6.44,8.15-1.22-.24-2.54-.46-3.81-.64C171.8,46.07,171,43.21,171.4,42.94ZM180,55c-1.21-.18-2.51-.4-3.86-.66-.68-1.16-1.34-2.36-1.94-3.52,1.28.18,2.59.41,3.86.66C178.76,52.67,179.42,53.86,180,55Zm-14-4.18c.17-1,6.6-.22,7.75-.06q.89,1.74,1.89,3.48C169.52,53,165.93,51.47,166,50.86ZM182.86,63c-1,.6-5.67-6.86-6.43-8.15,1.22.24,2.54.46,3.81.64C182.47,59.83,183.31,62.69,182.86,63ZM188.22,55c-.17.94-6.51.23-7.74.06q-.89-1.74-1.89-3.48C184.74,52.88,188.33,54.43,188.22,55Z" style="fill: #ea6399"></path>
    <path d="M14.75,131.29l-9.87-8.5c-.19-.17.06-.45.24-.29l9.61,8.29,2.55-17.46a.19.19,0,0,1,.38.06l-2.6,17.79A.19.19,0,0,1,14.75,131.29Z" style="fill: #ea6399"></path>
    <path d="M69.3,26.58a2.27,2.27,0,1,0,2.19,2.34A2.28,2.28,0,0,0,69.3,26.58Zm-.07,4.15a1.89,1.89,0,1,1,1.89-1.83A1.89,1.89,0,0,1,69.23,30.73Z" style="fill: #ea6399"></path>
    <path d="M60.8,71.45c-.16-.18-.45.07-.28.25,2.77,3.09,2.63,3,2.75,3a.19.19,0,0,0,.14-.31Z" style="fill: #8b0045"></path>
    <path d="M67.78,79.2a.19.19,0,1,0-.28.25c2.82,3.14,2.63,3,2.75,3a.19.19,0,0,0,.14-.32Z" style="fill: #8b0045"></path>
    <path d="M74.76,86.94c-.17-.18-.45.07-.28.25,2.82,3.14,2.63,3,2.75,3a.19.19,0,0,0,.14-.31Z" style="fill: #8b0045"></path>
    <path d="M88.71,102.43a.19.19,0,0,0-.28.25c2.77,3.08,2.63,3,2.75,3a.19.19,0,0,0,.14-.31Z" style="fill: #8b0045"></path>
    <path d="M95.69,110.18a.19.19,0,1,0-.28.25c2.77,3.08,2.63,3,2.75,3a.19.19,0,0,0,.14-.32Z" style="fill: #8b0045"></path>
    <path d="M81.73,94.69c-.16-.19-.44.06-.28.25,2.78,3.08,2.63,3,2.75,3a.19.19,0,0,0,.14-.32Z" style="fill: #8b0045"></path>
    <path d="M192.94,96.38c-5.64-5.67-16.59-12.81-16.7-12.88a.2.2,0,0,0-.2,0,16.67,16.67,0,0,0-2.64,2c-1.28-.66-3.21-1.89-3.25-2.58-.15-2.69,2.17-7.14,1.41-7.86A.53.53,0,0,0,171,75c-1,.38-1.93,1.8-2.41,2.74a46.27,46.27,0,0,0-.24-5.42,25.38,25.38,0,0,0-.38-3.2c-.51-2.06-.84-2.43-1.17-2.39s-.54.92-.61,1.85c-.29-1.57-.76-3.28-1.36-3.25-.24,0-.75,0-.87,3.57-1.17-3.24-3.84-6.65-8.14-10.4a.2.2,0,0,0-.31.1c-.43,1.73-.88,3.58-1.3,5.53a.42.42,0,0,0-.31-.13c-1.16,0-2.07,4.34-2.38,5.6a6.23,6.23,0,0,0-.16-2.08c-.15-.38-.49-.49-.82-.09-.64.77-1.15,2.63-2,4.74a1.55,1.55,0,0,0-.84-.38c-1.35-.32-7.42-1.77-14.08-4.07-3-1-7.36-.72-9.82,1.91-1.46,1.56-2.73,4.51-.53,9.73,2.1,5,8.09,10.66,12.88,13.7-6.48.07-14.78-1.41-24.59-6.42a3.36,3.36,0,0,0-2.73-.65c-2.47.64-3.73,5.07-3.41,11.88-42.81-44.21-41-42.38-41.13-42.35h0a39.19,39.19,0,0,0-6.92,4.54l-4.22-4.74C51.8,52,51.62,49,50.78,45.86a34.29,34.29,0,0,0-3.29-8c-.61-1-1.06-1.47-1.45-1.41-2.22.29-2.65,11.72-4.39,17.54-.42,1.43-1.26,4.79-1.13,6.06A8.65,8.65,0,0,0,42,63.38c.55.9,8.08,9,24.06,26.31L46.23,85c-.1,0-.18-.1-.29.06a34.75,34.75,0,0,0-3.3,6.48L37.35,90c-2.87-2.14-4.58-4.54-7-6.79a34.51,34.51,0,0,0-7-5c-1.07-.54-1.68-.67-2-.42C19.58,79.21,25.32,89.09,27,95a24.82,24.82,0,0,0,2.27,5.73,8.78,8.78,0,0,0,3,2.06,15.33,15.33,0,0,0,5,1.5l56,14.91c4.58,5,6.54,7.45,10.66,9.81a27.59,27.59,0,0,0,13.53,3.9,23.22,23.22,0,0,0,8.44-1.66c6.57-2.36,22.57-8.09,33.9-21.07a52,52,0,0,0,4.74-6.36c8.63,3.94,14.38,8,21,7.68,4.56-.24,7.79-2.21,9.08-5.55A9.53,9.53,0,0,0,192.94,96.38Zm-163.4,4.07a24.24,24.24,0,0,1-2.21-5.6c-1.42-5-5.94-13.3-6-16.08,0-.32.06-.75.38-.75a3.48,3.48,0,0,1,1.31.46c.28,3.46,5.23,12.52,6.79,18.09a35.22,35.22,0,0,0,2,5.54A7,7,0,0,1,29.54,100.45ZM160.59,74.78c-.13-2.81.18-3.06.18-3.06s.31.08.94,1.82c.06.18.6,1.69.6,1.69,0,.18.1,1.67.15,2.2a.19.19,0,1,0,.37,0c-.16-2-.17-3.56-.51-6.15s0-3.44.21-3.48h0c.2,0,.77.69,1.35,2.93.15.58.67,3.38.92,5.6a.19.19,0,1,0,.37,0c-.13-1.18-.35-2.58-.54-3.71a11.3,11.3,0,0,0-.34-2.49c0-4.11.51-4.33.52-4.34.27,0,1,1.82,1.26,4.9.22,2.18.45,3.77.5,5.07a.18.18,0,0,0,.18.18.19.19,0,0,0,.19-.2c-.07-1.87-.44-3.73-.46-5.41a8.88,8.88,0,0,1,.35-3.13c.08.07.33.43.74,2.09.36,1.47,1,9,.34,11.41a.19.19,0,0,0,.37.09,11.52,11.52,0,0,0,.24-2c.13-.3,1.24-2.87,2.58-3.35a.34.34,0,0,1,.2,0c.44.43-1.67,5.11-1.54,7.62.06,1,2.52,2.39,3.34,2.82A22.48,22.48,0,0,0,168,93.65c-5.61-4.25-7.91-5.68-7.66-10.13C160.51,81,160.72,77.42,160.59,74.78Zm-3.67,9.42a14.21,14.21,0,0,0,3.14-2,10,10,0,0,0,.43,4.86c-.83.85-1.69,1.64-2.56,2.39-3.13,1.35-4.23.59-5.25-.33C154.63,87.88,156.41,86.24,156.92,84.2Zm-1.14,1.12c-.88.6-2.43.39-4.5-.6A3.85,3.85,0,0,0,153,83.66c.36-.4.74-.86,1.13-1.36a3.57,3.57,0,0,0,2.5.56A2.58,2.58,0,0,1,155.78,85.32Zm4.57-13.56a9.93,9.93,0,0,0-.13,3c.1,2.08,0,4.84-.12,6.73-5.53,2.19-8.29,1.43-7-8.91A30.63,30.63,0,0,1,160.35,71.76Zm-7.94-4.22c.59-2.29,1.22-3.15,1.47-3.15.05,0,.13.09.2.29-.43,2-1.08,5.45-1.41,8.35a5.76,5.76,0,0,0-1.79.36C151.37,71.77,151.78,70,152.41,67.54Zm-4.72,6.62c-.77,1.78-1.54,3.38-1.87,4a.19.19,0,0,0,.34.17c3-6,3.68-9.21,4.53-10.53.23-.35.27-.37.36,0a19.71,19.71,0,0,1,0,3.45c-.22.82-.43,1.6-.63,2.25a7.68,7.68,0,0,0-.74.41c-.2.14,0,.46.21.32a5.51,5.51,0,0,1,2.74-.9c-.51,4.69-.14,7.4,1.18,8.65-.39.5-.77,1-1.12,1.35-1.36,1.51-4.07,1.44-6.07,1a19.23,19.23,0,0,1-5.15-1.92,17.57,17.57,0,0,1,3.71-8.94A6.56,6.56,0,0,0,147.69,74.16Zm-24.1,5.06c-2.12-5-.91-7.84.47-9.32,2.32-2.49,6.59-2.79,9.42-1.81,5.68,2,10.92,3.3,13.2,3.86-3.68,1.47-7.06,11.22-5.13,14.76l-12.31-6.24a.19.19,0,0,0-.17.34l13.13,6.65c1.53,1,3.43-1,4.49-2.63a10,10,0,0,0,4.05,0c1.47.75,3.72,1.67,5.14.83-.83,1.3-2.81,3-5.95,4.47a33.3,33.3,0,0,1-13.1,2.89C132,90.14,125.74,84.3,123.59,79.22ZM135.7,93.45a32.66,32.66,0,0,0,16.64-4.13c1.22,1.11,2.3,1.66,4.68.88-12.67,10.1-28.91,9.87-37.62,8.79-1-2.42-3.64-8.33-6.62-11.3C121.82,92.07,129.55,93.45,135.7,93.45ZM43.47,55.87A43.12,43.12,0,0,0,42,62.63,7.23,7.23,0,0,1,40.89,60,24.16,24.16,0,0,1,42,54.08c1.49-5,2.18-15.39,3.71-17.06.51-.56.86,0,1.38.92C45.6,40.83,44.91,50.21,43.47,55.87Zm2.28,11.24a38,38,0,0,1,7.16-11.39l4.1,4.6a35.48,35.48,0,0,0-8.29,10Zm-8.3,36.8a38,38,0,0,1,0-13.49l5.1,1.46a27.71,27.71,0,0,0-1.53,13Zm3.92,1a27.09,27.09,0,0,1,0-7.14l3.58.92a.19.19,0,1,0,.09-.36l-3.62-.93a31.25,31.25,0,0,1,4.73-12.1l20.29,4.84L83,108.13l-1.35-.35a.19.19,0,0,0-.1.37l1.91.49c3.59,3.88,6.79,7.34,9.23,10Zm81.43,26.83c-7.46,1.94-14.23-.57-18.74-3.15A25.74,25.74,0,0,1,98,123.76L49,70.59a35.38,35.38,0,0,1,4.63-6.51c2.72,3,2.52,2.84,2.64,2.84a.19.19,0,0,0,.14-.31L53.91,63.8a37.32,37.32,0,0,1,10.36-7.86c52.45,54.18,50.11,51.81,50.23,51.81a.19.19,0,0,0,.14-.32l-7.26-7.5,9.1,2.17A180.63,180.63,0,0,1,122,124.82a15.45,15.45,0,0,1-1.93.27.19.19,0,0,0,0,.38,15.32,15.32,0,0,0,2-.28C122.66,128.78,123,131.38,122.8,131.79Zm71.44-26c-2,5.19-8.44,6.11-13.79,4.75-5.15-1.31-12.48-5.9-18.8-8.38a.2.2,0,0,0-.29.14l-1,6.47c-11.3,13.71-28,19.68-34.69,22.09-.75.26-1.42.54-2.52.85.36-3.36-5-28.08-7.74-32.93,7.28,1.39,29.94,4.12,45.2-11.34,1.11,2.14,3.9,4.08,7.23,6.6a24.49,24.49,0,0,0-1.1,3.9.57.57,0,0,0,.17.49l13.29,6.94a.19.19,0,1,0,.17-.33l-13.27-6.94c1.14-6,4.57-11.47,9-14.2,1.11.73,11.21,7.41,16.53,12.76A9.15,9.15,0,0,1,194.24,105.77Z" style="fill: #8b0045"></path>
    <polygon points="61.99 150.13 81.59 153.95 63.22 137.59 43.61 133.77 61.99 150.13" style="fill: #ea6399"></polygon>
    <polygon points="82.51 153.34 100.45 141.56 79.02 138.95 71.74 143.75 82.51 153.34" style="fill: #ea6399"></polygon>
    <path d="M114.56,175.18l-4.22,3.94-3.93-4.22a.19.19,0,0,0-.28.26l3.94,4.22-4.22,3.93a.19.19,0,0,0,.26.28l4.22-3.94,3.93,4.22a.19.19,0,0,0,.28-.26l-3.94-4.22,4.22-3.93A.19.19,0,0,0,114.56,175.18Z" style="fill: #ea6399"></path>
  </g></g></g></svg>