<svg width="12" height="12" viewBox="0 0 12 12" fill="none" xmlns="http://www.w3.org/2000/svg">
<path fill-rule="evenodd" clip-rule="evenodd" d="M4 11.5C4.55228 11.5 5 11.0523 5 10.5C5 9.94772 4.55228 9.5 4 9.5C3.44772 9.5 3 9.94772 3 10.5C3 11.0523 3.44772 11.5 4 11.5Z" stroke="#626060" stroke-linecap="round" stroke-linejoin="round"/>
<path fill-rule="evenodd" clip-rule="evenodd" d="M10 11.5C10.5523 11.5 11 11.0523 11 10.5C11 9.94772 10.5523 9.5 10 9.5C9.44772 9.5 9 9.94772 9 10.5C9 11.0523 9.44772 11.5 10 11.5Z" stroke="#626060" stroke-linecap="round" stroke-linejoin="round"/>
<path d="M2.835 3H11.5L10.66 7.195C10.5656 7.67012 10.1443 8.00928 9.66 8H4.375C3.86974 8.00429 3.44067 7.63099 3.375 7.13L2.615 1.37C2.54981 0.872798 2.12646 0.500759 1.625 0.5H0.5" stroke="#626060" stroke-linecap="round" stroke-linejoin="round"/>
</svg>
