<svg xmlns="http://www.w3.org/2000/svg" viewBox="0 0 999 999">
  
<g transform="matrix(2.4975,0,0,2.4975,0,0)"><g transform="matrix(2,0,0,2,0,0)"><g>
    <path d="M53.71,65.75c.25,2,1,3.9,2.88,4.59A28,28,0,0,1,51.67,80c-1.77-1.15-3.81-2.17-5.44-3.22.05-1.73.85-3.58,2.2-6.08a6.72,6.72,0,0,1,1-5.74,7.85,7.85,0,0,1-1.32,1.65c-1.73,1.63-3,.54-2.53-.51,2.24-5.29,2.08-5.61,5.09-4.14C53.42,63.29,53.42,63.29,53.71,65.75Z" style="fill: #ffd1d0"></path>
    <path d="M68.54,74.6a.33.33,0,0,1-.3-.45C97.85,0,95.82,4.62,96.21,4.68s-.09-3.56,5.64,56.61a.33.33,0,0,1-.65.06L96,6.38C66.86,79.35,68.87,74.6,68.54,74.6Z" style="fill: #ea6399"></path>
    <path d="M144.38,152.43a4.38,4.38,0,0,1-1.21,1.78l-6.28,0c4.13-5.18,2.88-14.77.38-17.58,0,0,4.15.17,5.9.27C145.55,140.74,145.87,148.53,144.38,152.43Z" style="fill: #ffd1d0"></path>
    <path d="M137.27,136.61c2.5,2.81,3.75,12.4-.38,17.58-22.28-.14-24.09-.64-28.24-2.56-3.7-1.72-7.13-12.08-10.05-21,2.25-2.67,8.72-8.91,11.05-11.06,1.64-.79,5.34-2.7,6.55-3.51.81,4.33,2.87,13.84,4.2,19.93,2,.18,9.9.38,16.86.66Z" style="fill: #ffd1d0"></path>
    <path d="M100.14,155.47c-1.67,4.39-7.56,7-12.24,7.69a13.35,13.35,0,0,1-5-.19l-3.42-5.61c6.31,1.39,15.07-1.42,17.82-7.63C98.24,151.61,99.19,153.54,100.14,155.47Z" style="fill: #ffd1d0"></path>
    <path d="M86.71,129c1.58,2.8,5.92,11.31,10.59,20.72A12.62,12.62,0,0,1,91,155.84c-4.15-8.05-12.73-26.39-14.57-30.22,8.58-4.34,30.43-13.42,34.18-15.76s5.25-5.33,1.25-18.67a61,61,0,0,1,6.75-.41c7.39,12.82,2.74,21.89-2.37,25.26C109.74,120.29,94,126.34,86.71,129Z" style="fill: #ffd1d0"></path>
    <path d="M91.82,102.71c-.09-1-.26-2.64-.47-4.52a49.59,49.59,0,0,1,20.46-7c4,13.34,2.5,16.34-1.25,18.67S85,121.28,76.39,125.62c1.84,3.83,10.42,22.17,14.57,30.22a18.83,18.83,0,0,1-11.48,1.5c-15.69-26-17.54-30.71-16.75-35.47C63.62,116.57,68.17,113.42,91.82,102.71Z" style="fill: #ffd1d0"></path>
    <path d="M47.38,62A25.46,25.46,0,0,0,46,64.9a19.28,19.28,0,0,1-2.54-1.44,1.61,1.61,0,0,1,1.84-2.64Z" style="fill: #ffd1d0"></path>
    <path d="M48.09,66.59c.55,1.15-.36,2.93-2,2.09A42.64,42.64,0,0,1,42,66.56a1.65,1.65,0,0,1,1.82-2.74c.76.42,1.45.73,2.23,1.15,0,0-.3.7-.46,1.1-.45,1.05.79,2.14,2.52.51Z" style="fill: #ffd1d0"></path>
    <path d="M40.74,69.75A1.62,1.62,0,0,1,42.48,67c1.47.75,2.36,1.2,3.8,2,2,1.14.69,3.72-1.46,2.7A38.81,38.81,0,0,1,40.74,69.75Z" style="fill: #ffd1d0"></path>
    <path d="M39.87,73a1.57,1.57,0,0,1,1.62-2.68c1.37.65,2.3,1.08,3.71,1.84,2,1.06.75,3.57-1.36,2.64A42.83,42.83,0,0,1,39.87,73Z" style="fill: #ffd1d0"></path>
    <path d="M142.11,8.28a19.7,19.7,0,0,1,0,2.77,24,24,0,0,0-3.17-.06c0-.83,0-1.45,0-2.25C138.87,6.57,142,6.48,142.11,8.28Z" style="fill: #ffd1d0"></path>
    <path d="M145.56,8.1c.07,1.17-.08,2.22-.2,4.6a1.54,1.54,0,0,1-2.81.91c2.26-.86,1.94-2.44.81-2.5l-1.17-.06c0-.89.09-1.65.11-2.5C142.35,6.23,145.44,6.19,145.56,8.1Z" style="fill: #ffd1d0"></path>
    <path d="M148.91,8.21c0,1.22-.13,2.12-.31,4.52s-3.07,2.44-3.06.14c0-1,.07-2.42.15-4.28C145.79,6.32,148.85,6.32,148.91,8.21Z" style="fill: #ffd1d0"></path>
    <path d="M152.29,8.91a36.22,36.22,0,0,1-.42,4.37c-.25,2.31-3,2.31-3,.07.05-1.51.15-2.61.26-4.14C149.34,7,152.29,7.09,152.29,8.91Z" style="fill: #ffd1d0"></path>
    <path d="M142.54,13.6a1.55,1.55,0,0,0,2.82-.9c.07-1.38.16-2.38.2-3.22.2,0,0-.26,0,3.39,0,2.31,2.87,2.24,3.06-.14.1-1.36.21-2.34.28-3.16l.26,0c-.09,1.16-.18,2.26-.23,3.75-.08,2.23,2.7,2.23,3-.07.19-1.81.38-2.92.42-3.9.31,0,0,7.12,0,13.26a27.49,27.49,0,0,1-10.74.25c.39-2.2-1.17-3.71-3.05-4.93-1.47-.94-1.44-1.23-1.26-4.07.22-3.34.38-3.05,6.07-2.78C144.48,11.16,144.8,12.75,142.54,13.6Z" style="fill: #ffd1d0"></path>
    <path d="M113.64,54.48C110.19,63.59,102.05,65.84,99,62.7A12.69,12.69,0,0,0,103.65,55a8.37,8.37,0,0,0,2.95-3.7,16.66,16.66,0,0,1-2.7,1.11c-4.16,1.29-5.45-1.35-4.09-10.52a26.57,26.57,0,0,1,7.57-1.06c-.53,2-.31,4.77.57,2.9s3-.45,1.51,2a2.87,2.87,0,0,0,.33,3.13A5.29,5.29,0,0,0,113.64,54.48Z" style="fill: #ffd1d0"></path>
    <path d="M141.09,136.66l25.75-64.58-45,8a.33.33,0,0,1-.12-.64c48.93-8.62,45.76-8.16,45.94-7.94s1.88-4.4-25.92,65.45A.32.32,0,1,1,141.09,136.66Z" style="fill: #ea6399"></path>
    <path d="M118.17,195.33a.33.33,0,0,1-.32-.3l-4-41.64a.33.33,0,0,1,.65-.07l3.84,40.3,15.78-39.57a.33.33,0,0,1,.61.24C117.31,198,118.5,195.33,118.17,195.33Z" style="fill: #ea6399"></path>
    <path d="M47,128.67a.34.34,0,0,1-.31-.45L62.46,88.63a.33.33,0,0,1,.61.24L47.5,127.92l15.21-2.69a.33.33,0,0,1,.12.65C46.94,128.67,47.08,128.67,47,128.67Z" style="fill: #ea6399"></path>
    <path d="M85.72,50c0-.19.72.28-9.73-5.37.7-1.18,1.42-2.44,2.14-3.76a.32.32,0,0,0-.13-.44c-21.57-11.64-2.16-1.15-23.75-12.85a.32.32,0,0,0-.44.13c-.72,1.32-1.38,2.61-2,3.84l-9.58-5.19a.32.32,0,0,0-.44.13C34.19,40.55,40.53,52,45.55,54.89c0,2.4.25,4.42.38,6.28l1.44.82c.75-1.22,1.39-1,3.25-.07,3.17,1.56,2.75,1.46,3.13,4.16.1,0,4.45-2.39,6.11-3.45a12.73,12.73,0,0,0,5.65,1.16c6.17,0,14.62-3.28,20.18-13.56A.28.28,0,0,0,85.72,50ZM45.55,54.12c-4.73-3.06-10.33-13.8-3.32-27l9.31,5C46.37,42.87,45.6,49.77,45.55,54.12Zm12.35-5-5.85.66,4.2-4.17-2.44-5.37L59.05,43l4.35-4-.94,5.82,5.12,2.91-5.83.9-1.21,5.79Zm2.6,13.08c3.63-2.42,9-6.85,15.15-17l9.31,5C77.7,63.32,65.65,64.51,60.5,62.21Z" style="fill: #ea6399"></path>
    <path d="M43.28,144.05a6,6,0,1,0-8.5,6.33,11.53,11.53,0,1,0,8.5-6.33Zm1.86,22.25a10.89,10.89,0,0,1-9.75-15.68,6.06,6.06,0,0,0,7.94-5.92,10.88,10.88,0,1,1,1.81,21.6Z" style="fill: #ea6399"></path>
    <path d="M34.81,52.79l-3.74.66a3.24,3.24,0,0,1-3.75-2.63l-.66-3.73a.33.33,0,0,0-.65.11l.66,3.73A3.24,3.24,0,0,1,24,54.69l-3.73.66a.33.33,0,0,0,.1.65l3.75-.66A3.22,3.22,0,0,1,27.91,58l.66,3.74a.32.32,0,0,0,.64-.11l-.65-3.74a3.24,3.24,0,0,1,2.63-3.75l3.73-.66A.33.33,0,0,0,34.81,52.79ZM28,56.37a3.91,3.91,0,0,0-2.32-1.63,4,4,0,0,0,1.63-2.32,4,4,0,0,0,2.32,1.63A3.91,3.91,0,0,0,28,56.37Z" style="fill: #ea6399"></path>
    <path d="M179.57,111.76c-5.29,1-5.35.94-5.53,1a4.79,4.79,0,0,1-5.38-3.92l-.94-5.36a.33.33,0,0,0-.65.12l.94,5.36a4.77,4.77,0,0,1-3.88,5.55l-5.36.94a.33.33,0,0,0,.12.65l5.36-.94a4.78,4.78,0,0,1,5.52,3.72c0,.14.24,1.41,1,5.52a.33.33,0,0,0,.65-.11c-.73-4.15-.95-5.39-1-5.54a4.82,4.82,0,0,1,3.66-5.34c.24,0-.08,0,5.62-1A.33.33,0,0,0,179.57,111.76Zm-9.78,5.36a5.46,5.46,0,0,0-3.76-2.63,5.47,5.47,0,0,0,2.63-3.77,5.47,5.47,0,0,0,3.77,2.63A5.51,5.51,0,0,0,169.79,117.12Z" style="fill: #ea6399"></path>
    <path d="M167.39,44.45a3.79,3.79,0,1,1,3.8-3.79A3.79,3.79,0,0,1,167.39,44.45Zm0-6.93a3.14,3.14,0,1,0,3.14,3.14A3.14,3.14,0,0,0,167.39,37.52Z" style="fill: #ea6399"></path>
    <path d="M33.1,102A2.09,2.09,0,1,1,35.19,100,2.08,2.08,0,0,1,33.1,102Zm0-3.51A1.43,1.43,0,1,0,34.54,100,1.43,1.43,0,0,0,33.1,98.52Z" style="fill: #ea6399"></path>
    <path d="M125,28l1.63-6.58-4.85.86a.33.33,0,0,1-.37-.4l1.75-7.07a.33.33,0,0,1,.64.16l-1.64,6.58c5.23-.93,5-.94,5.15-.76s.22-.32-1.68,7.36A.32.32,0,1,1,125,28Z" style="fill: #ea6399"></path>
    <path d="M48.61,71.06a6.55,6.55,0,0,1,.79-6.12,7.74,7.74,0,0,1-1.31,1.65c.56,1.15-.36,2.93-2,2.09C45,68.13,43,67.17,43,67.17c-.11.2-.25-.14,3.3,1.86,2,1.14.69,3.72-1.46,2.7-1.2-.58-2.11-1-2.85-1.32-.08.18-.24-.15,3.25,1.69,2,1,.76,3.57-1.38,2.65-.78-.35-1.44-.63-2-.86a.33.33,0,0,0-.5-.39c-1.62,1.31-3.59,1.58-7.29,1L49.73,83C45.66,78.49,45.78,76.33,48.61,71.06Z" style="fill: #ea6399"></path>
    <path d="M33.42,74.92,30,79.44a.33.33,0,0,0,.11.49l17.27,9.35a.32.32,0,0,0,.46-.18l1.91-5.36Z" style="fill: #ea6399"></path>
    <path d="M147.62,138.27a.24.24,0,0,0-.17-.07,16,16,0,0,0-3.25,0,10.63,10.63,0,0,0-.75-1.47.32.32,0,0,0-.26-.15c-3.78-.21-21-.78-22.52-.9,0,0-3.35-15.44-4.11-19.46,5.12-3.48,9.64-12.72,2.37-25.46,1.89-6.68,4.4-15.46,5.72-19.85,23-12.8,26.94-15.2,28.79-18.65,1.45-2.71,1.16-4.06,1.16-30.84.17-.95-1-1.52-2-1.71,0-2.23.26-9.84,0-10.44V8.91c0-1.82-2.4-2.26-3.39-.86C149,6.32,146.66,6,145.72,7.4a2,2,0,0,0-3.52.13,2,2,0,0,0-3.62,1.22c0,.68,0,1.26,0,2-1.27.24-1.51,1-1.66,3.19-.18,2.85-.21,3.29,1.41,4.33a8.28,8.28,0,0,1,2.26,2c-.51.15-1.37.52-1.38,1.31-.08,4.64,0,16.63-.32,22.42-1.95,1.18-13.3,6.85-18.23,9.14a11.09,11.09,0,0,1-6.37,1.2c-4.74-.82-4.18-5.45-4.21-5.55.27-3.87,3.29-8.91,4.23-11,1.31-2.9-.55-4-2.2-2.9a1.6,1.6,0,0,0-2.65-.39,2,2,0,0,0-3.08.16c-.73-.91-2.42-.51-3.25.48-.74-.72-2.46.06-2.8,1.79-.74,3.86-2.69,13.51.09,15.63a3.57,3.57,0,0,0,3.12.35c-.13,2.69-1.22,7.32-4.7,9.61C92.53,66.57,77.13,73.55,72.13,75.6c-2.62-1.31-6-2.57-15.62-8a1.52,1.52,0,0,0-1.85.49,9.69,9.69,0,0,1-.71-3c-.2-2-.59-2.17-3.18-3.44-1.45-.71-2.57-1.33-3.5-.08l-1.77-1a2,2,0,0,0-2.68,2.72,2,2,0,0,0-1.46,3.23,2,2,0,0,0-1.09,3.33,1.9,1.9,0,0,0-.56,3.44c1,.56,2,.92,4,1.8C46,76,47.37,73.66,46,72.28a1.79,1.79,0,0,0,1.05-3.07,1.61,1.61,0,0,0,.75-.29,5.67,5.67,0,0,0,1.51,3.86.33.33,0,0,0,.48-.45c-1.56-1.69-1.94-4.34-.15-7.24a.33.33,0,0,0-.55-.35l-.05.08c-2,3.16-3.65,2.39-3.22,1.37,1.43-3.37,1.85-4.44,2.44-4.66.41-.15,1,.11,2.26.71,2.51,1.24,2.61,1.28,2.77,2.89.24,2.32.83,4.43,2.92,5.4a28.75,28.75,0,0,1-4.61,9c-1.73-1.1-3.56-2-5-3a5,5,0,0,0,0,.77c.74.45,1.56.91,2.4,1.39-.28,1.13-.22,2.37.57,2.66C66.93,91.91,70.38,93.56,75.16,92.24a98.82,98.82,0,0,0,14.5-5.58c0,.11,1.57,13.25,1.82,15.85-24,10.9-28.17,13.93-29.06,19.31s1.7,11,20.2,41.32a.3.3,0,0,0,.19.14,13.1,13.1,0,0,0,4.59.25c-2.14,5.67-4,15.3-3.54,20.38a.33.33,0,0,0,.5.25c7.31-4.52,16.47-16.52,18.85-23.17a.33.33,0,0,0-.06-.33,29,29,0,0,0-3.45-3.59,7.7,7.7,0,0,0,.75-1.49.33.33,0,0,0,0-.26c-2.78-5.65-10.32-20.81-13.26-26.16,3-1.11,6.23-2.31,9.42-3.57,3.15,9.24,7.28,24.18,11.92,26.34s6.94,2.57,34.65,2.61c.39,0,1.05-1,1.29-1.48,3,3.51,10.39,8.11,15.21,8.77a.32.32,0,0,0,.37-.33C159.92,152,151.23,141.19,147.62,138.27ZM44,74.44a41.36,41.36,0,0,1-4-1.77,1.24,1.24,0,0,1,1.32-2.1c1.4.66,2.37,1.11,3.71,1.82C46.68,73.23,45.73,75.2,44,74.44Zm1-3c-2-1-3.09-1.36-4.05-2a1.29,1.29,0,0,1,1.42-2.16c1.42.72,2.4,1.22,3.8,2C47.78,70.24,46.74,72.28,45,71.43Zm2.94-4.28c.11.91-.59,1.8-1.7,1.23-1.68-.85-3.11-1.47-4.07-2.09a1.32,1.32,0,0,1,1.49-2.18c.67.36,1.27.65,2,1l-.35.82C44.68,67.25,46.12,68.51,47.9,67.15Zm-2-2.71a22.43,22.43,0,0,1-2.18-1.26,1.28,1.28,0,0,1,1.49-2.09l1.76,1C46.63,62.65,46.3,63.41,45.86,64.44ZM149.24,13.36c0-1.52.14-2.6.26-4.13.14-1.8,2.46-1.71,2.47-.32,0,.92-.14,1.69-.43,4.33C151.33,15.1,149.17,15.2,149.24,13.36ZM146,8.6c.09-1.87,2.52-1.83,2.57-.38,0,1.11-.15,2.34-.32,4.48-.15,2-2.41,2.05-2.4.17C145.87,11.33,145.94,10.23,146,8.6Zm-3.4,0c0-1.9,2.53-1.91,2.62-.43.07,1.12-.09,2.37-.21,4.56a1.19,1.19,0,0,1-1.9,1c2.06-1,1.66-2.86.24-2.93l-.85,0C142.55,10,142.61,9.32,142.62,8.55Zm-.84-.25a19.22,19.22,0,0,1,0,2.4c-1.07,0-1.9-.09-2.54-.06,0-.7,0-1.22,0-1.9C139.23,7,141.65,6.94,141.78,8.3Zm-3.07,9.38c-1.3-.84-1.3-.94-1.11-3.78.2-3,.2-2.71,5.74-2.47,1,.05,1,1.88-2.91,2.3a.33.33,0,0,0,.07.65c.1,0,4.87-.72,6.16,3.26a.33.33,0,0,0,.62-.2,5.1,5.1,0,0,0-2.58-3,1.69,1.69,0,0,0,.68-.62,1.76,1.76,0,0,0,3.23.07c.33,2,2.93,2,3.49-.07,0,2.86-.17,6.17-.11,8.62a28.44,28.44,0,0,1-10.05.23C142.06,21.17,141.65,19.57,138.71,17.68ZM103.91,55.2a8.6,8.6,0,0,0,3-3.81.33.33,0,0,0-.45-.41c-1.54.76-4.28,2-5.63,1s-1.57-4-.73-9.84a28.36,28.36,0,0,1,6.87-1c-.24,1.18-.41,3.25.3,3.51.52.18.84-.52,1-.79.7-1.49,2.18-.3.93,1.65a3.25,3.25,0,0,0,.26,3.42,5.47,5.47,0,0,0,3.81,5.77,12.1,12.1,0,0,1-8.6,8.5c-2.07.52-4,.34-5.09-.44A12.22,12.22,0,0,0,103.91,55.2ZM89.14,75.92a.33.33,0,0,0-.65,0c.09,1,.22,2.33.38,3.83-1.78,2.12-7.16,8-12.25,11.34C71,92.84,70,93,50.61,81.27c1.21-.61,2.75-2.69,4.45-6.07.84-1.66,2.21-4.7,2-6.56,2.8,1.64,7.44,4.13,14.6,7.45.29.13.42.24.61.17,4.82-2,20.2-8.93,26.75-13.15,3,2.6,12.32.4,14.88-8.27A11.53,11.53,0,0,0,121,53.65c5.22-2.42,16.94-8.28,18.45-9.28a.29.29,0,0,0,.15-.25c.31-5.34.36-16.32.34-21.58,2.35,1.64,11.77,1.35,14.06-.26,0,25.76.26,27.12-1.09,29.64-2.08,3.9-8.66,7.35-33.57,21.19a.34.34,0,0,0-.17.31c.32,4.25.69,8.7.69,11.81l-1.48,5.22a51.66,51.66,0,0,0-26.71,7.2C90.83,90.8,89.51,80.26,89.14,75.92Zm-26.08,46c1-5.72,6-8.74,38.23-23.1a.33.33,0,0,0-.27-.6c-3.23,1.44-6.2,2.76-8.91,4-.09-1-.23-2.3-.41-3.86a49.27,49.27,0,0,1,19.89-6.82c4,13.58,2.15,16-1.19,18-3.67,2.28-25.68,11.46-34.15,15.74a.32.32,0,0,0-.15.43c1.75,3.66,10.2,21.7,14.41,29.91a18.76,18.76,0,0,1-10.82,1.38C63.88,130.89,62.29,126.52,63.06,121.93Zm38.75,38.2.72.82c-2.39,6.45-11,17.75-18,22.36a19.24,19.24,0,0,1,0-2C88.54,178.66,97.47,170,101.81,160.13Zm-2-4.65c-2.17,5.44-11.64,8.47-16.68,7.2l-3-4.88c5.94,1,14.09-1.4,17.17-7.34ZM83.7,129.73a.33.33,0,0,0,.11.64,24.5,24.5,0,0,0,2.75-1c1.68,3,5.88,11.28,10.38,20.33a12.14,12.14,0,0,1-5.84,5.67c-4.11-8-12.22-25.33-14.27-29.62,8.73-4.37,30.18-13.3,33.92-15.63,4-2.5,5.27-6,1.5-18.67,2-.22,4-.34,6.14-.37,6.57,11.55,3.46,21.27-2.77,24.92C106.71,121.24,93.48,126.22,83.7,129.73Zm25.09,21.6c-3.55-1.64-7-12.06-9.82-20.65,2.32-2.7,8.6-8.78,10.87-10.85,2.58-1.26,4.79-2.46,6.13-3.26.78,4.11,4.11,19.46,4.11,19.46.11.48-.07.25,17,.9,2.3,2.77,3.51,11.89-.37,16.93C114.71,153.73,112.91,153.24,108.79,151.33Zm34.26,2.56-5.51,0c3.67-5.24,2.53-13.67.4-16.9,1.8.07,3.52.15,5,.23C145.57,141.55,145.69,151.65,143.05,153.89Zm15.4,7c-.51-7.8-8.23-18.44-11.83-22.14.22,0,.45,0,.67.06,3.52,2.91,11.75,13.18,12.09,22.28A8.64,8.64,0,0,1,158.45,160.92Z" style="fill: #8b0045"></path>
  </g></g></g></svg>