<svg xmlns="http://www.w3.org/2000/svg" viewBox="0 0 999 999">
  
<g transform="matrix(2.4975,0,0,2.4975,0,0)"><g transform="matrix(2,0,0,2,0,0)"><g>
    <path d="M70.55,110.74c1.59.92,3.53,2.07,5.57,3.28-5.86,2-10.24,10.28-10.16,16.21-2.47-1.8-4.23-3.1-4.78-3.53A17.72,17.72,0,0,1,70.55,110.74Z" style="fill: #ffd1d0"></path>
    <path d="M146.8,149.12c-.36,2.83-.68,5.14-.91,6.49-4.23,2-13.65.87-18.84-3.44.17-1.43.44-3.79.76-6.57C131.22,149.37,141.21,151.35,146.8,149.12Z" style="fill: #ffd1d0"></path>
    <path d="M92.23,127.74a68.67,68.67,0,0,1-3.4-12.25c.37-3.24,1-9.64,1.15-11a5.94,5.94,0,0,0-.58-3.16,19,19,0,0,1,6.45-9,19,19,0,0,0,2.69.61c-7.08,10.59-4.83,27.13-1.27,44.7-11-7-25.17-15.54-28.07-17.58a14.33,14.33,0,0,1,6.92-6l7.13,4.23C85.88,120.88,89.13,124.29,92.23,127.74Z" style="fill: #ffd1d0"></path>
    <path d="M114.61,112.81c-.16,2.06-2,26.08-2.48,29.92-1.07,9.67-8.49,13.37-19.07,6.54C86.42,145,73.18,135.5,66,130.24a19.64,19.64,0,0,1,3.24-10.18c2.91,2,17,10.54,28.07,17.59-3.57-17.56-5.81-34.1,1.27-44.69,6,.94,13.73-.45,16-4.21,5.45,3,12.08,6.61,17.8,10.12,17.32,10.63,17.75,14.53,17.46,20.77-.27,5.75-1.81,20.37-3,29.48-5.59,2.23-15.58.24-19-3.54,1-8.29,2.33-20.23,2.47-21.82l-1.55-.38A68.63,68.63,0,0,1,114.61,112.81Z" style="fill: #ffd1d0"></path>
    <path d="M134.51,55.92a1.35,1.35,0,0,1,.06,2.4,6.48,6.48,0,0,1-2.43.92c-1.44.22-2.43-1-.32-2.23A7.34,7.34,0,0,0,134.51,55.92Z" style="fill: #ffd1d0"></path>
    <path d="M134.55,53.47c1,.36,1,1.74,0,2.45A7.27,7.27,0,0,1,131.82,57c-1.55.3-2.77-1-.54-2.39A5.59,5.59,0,0,0,134.55,53.47Z" style="fill: #ffd1d0"></path>
    <path d="M134.55,53.47a5,5,0,0,1-3.8,1.05,1.49,1.49,0,0,0,.36-.94c0-.41,0-.93,0-1.5a8.33,8.33,0,0,0,3.27-1A1.42,1.42,0,0,1,134.55,53.47Z" style="fill: #ffd1d0"></path>
    <path d="M134.28,49.08c.87.33.86,1.75-.36,2.26a9.54,9.54,0,0,1-2.82.73,15.83,15.83,0,0,0-.24-2.17C131.75,49.37,133.5,48.77,134.28,49.08Z" style="fill: #ffd1d0"></path>
    <path d="M131.28,68.2a36.5,36.5,0,0,1-10.69.58c0-.68-.17-1.89-.28-3.26-.61-7.28,0-8.77,1.09-10.81a29.53,29.53,0,0,1,3.55-5.2c.73-.69,3.12-.88,4.15-1,1.21-.12,1.52.21,1.76,1.37a16.3,16.3,0,0,1,.23,3.67c0,1.16-1.34,2.51-2.52-2.2a8.57,8.57,0,0,1,0,4.15,12.86,12.86,0,0,0,1.64,5.79C130.09,62.36,131.14,67,131.28,68.2Z" style="fill: #ffd1d0"></path>
    <path d="M86.55,107.35c-1.21,2.05-2.23,2-3.74,1.15-.75.55-1.54.34-2.65-.31-.67.53-1.32.38-2.24-.23-1.46-1-1.79-2.9-1.66-4.44a13.87,13.87,0,0,1-6-5.27c1.89-3.26,6.41-5.91,9.76-6.36,2.18,2.36,5.84,5.81,8.56,8.44A5.14,5.14,0,0,1,90,104.51c-.11,1.34-1.32,12.42-1.36,12.7C88.39,118.9,86.42,119.83,86.55,107.35Z" style="fill: #ffd1d0"></path>
    <path d="M111.36,146.55a.32.32,0,0,1,0-.63L128,143a.32.32,0,0,1,.11.63C108.82,147,111.47,146.55,111.36,146.55Z" style="fill: #ea6399"></path>
    <path d="M55.14,74.67,52.75,61.1a.32.32,0,0,1,.26-.37l27.77-4.9a.32.32,0,0,1,.11.64L53.44,61.31l2.33,13.25A.32.32,0,1,1,55.14,74.67Z" style="fill: #ea6399"></path>
    <path d="M61.38,110,57.46,87.8a.32.32,0,0,1,.63-.11L62,109.93A.32.32,0,0,1,61.38,110Z" style="fill: #ea6399"></path>
    <path d="M69.39,154a.32.32,0,0,1-.32-.26l-4.22-24a.32.32,0,1,1,.63-.11l4.17,23.66,23.59-4.16a.32.32,0,0,1,.11.63C69.13,154,69.49,154,69.39,154Z" style="fill: #ea6399"></path>
    <path d="M178.58,185.44c-.61-2.32-3.72-20.62-27.56-155.69a12.82,12.82,0,0,0-14.83-10.39L52,34.21A12.79,12.79,0,0,0,41.61,49L63.87,175.28a.32.32,0,0,1-.64.11L41,49.17A13.43,13.43,0,0,1,51.89,33.58l84.19-14.85a13.47,13.47,0,0,1,15.58,10.91c23.21,131.64,27.13,152.62,27.43,155.68C179.18,186.25,178.63,185.61,178.58,185.44Z" style="fill: #ea6399"></path>
    <path d="M175.75,68.61a5.15,5.15,0,1,1,5.15-5.15A5.16,5.16,0,0,1,175.75,68.61Zm0-9.66a4.51,4.51,0,1,0,4.51,4.51A4.52,4.52,0,0,0,175.75,59Z" style="fill: #ea6399"></path>
    <path d="M190.17,78.54a5.15,5.15,0,1,1,5.15-5.15A5.16,5.16,0,0,1,190.17,78.54Zm0-9.66a4.51,4.51,0,1,0,4.51,4.51A4.51,4.51,0,0,0,190.17,68.88Z" style="fill: #ea6399"></path>
    <path d="M174,81.47a.32.32,0,0,1-.26-.5l18-25.65a.32.32,0,0,1,.53.36C173,83.14,174.22,81.47,174,81.47Z" style="fill: #ea6399"></path>
    <path d="M189.49,36c-.4-.29-1.43-1-4.17-2.9a2.55,2.55,0,1,1,2.84-4.23l.47.33.28-.39a2.55,2.55,0,0,1,4.18,2.93c-2,2.85-2.66,3.88-3,4.24S189.79,36.18,189.49,36Zm-2.75-6.92a1.91,1.91,0,0,0-1.06,3.49l4.06,2.84,2.82-4a1.91,1.91,0,0,0-3.13-2.18l-.47.65a.32.32,0,0,1-.44.07A3,3,0,0,0,186.74,29.05Z" style="fill: #ea6399"></path>
    <path d="M81.07,157.08a3.27,3.27,0,0,0-4.54.8l-.43.61a3.68,3.68,0,0,0-3-1,3.26,3.26,0,0,0-1.3,5.88l5.68,4a.32.32,0,0,0,.45-.08l4-5.69A3.25,3.25,0,0,0,81.07,157.08Z" style="fill: #ea6399"></path>
    <path d="M86.68,160.48a5.53,5.53,0,0,1,4.75-6.2c4.53-.79,7.88,3.3,6.25,7l1.16,1.95a.33.33,0,0,1-.35.48l-2.24-.49C92.91,166.21,87.41,164.64,86.68,160.48Zm5.85-5.65c-4.86,0-7.21,5.69-3.38,8.38a5.5,5.5,0,0,0,6.79-.54c.18-.17.31-.08,2,.28-.88-1.47-1-1.53-.88-1.75C98.47,158.19,96.13,154.83,92.53,154.83Z" style="fill: #ea6399"></path>
    <path d="M153.42,154.68l-1.72-9.76a.32.32,0,0,1,.26-.38c10.46-1.84,9.75-1.76,9.91-1.65s0-.65,1.85,10a.32.32,0,0,1-.47.33l-5.31-3c-2.63,3.07-3.54,4.16-3.9,4.54S153.45,154.88,153.42,154.68Zm-1-9.56,1.55,8.78,3.69-4.31a.31.31,0,0,1,.4-.07l4.95,2.79-1.55-8.79Z" style="fill: #ea6399"></path>
    <circle cx="56" cy="51.46" r="4.88" style="fill: #ea6399"></circle>
    <path d="M63.15,50.52a.32.32,0,0,1-.06-.64l13.47-2.37a.32.32,0,0,1,.11.63C63.21,50.52,63.25,50.52,63.15,50.52Z" style="fill: #ea6399"></path>
    <path d="M36.35,107.57c.29-.08.11.41,2.24-9.88a.32.32,0,0,0-.37-.38l-24.6,4.34-3.16-6.46a.32.32,0,0,0-.35-.17l-5.17.91a.32.32,0,0,0,.12.63L10,95.69l9.76,19.94a2.69,2.69,0,1,0,4.16,2.11l8.91-1.57a2.69,2.69,0,1,0-.11-.63l-8.92,1.57a2.68,2.68,0,0,0-3.46-1.76L19,112.54Zm-1,5.77a2,2,0,1,1-2,2A2.05,2.05,0,0,1,35.4,113.34Zm-12.13,4.55A2.05,2.05,0,1,1,20.33,116,2.07,2.07,0,0,1,23.27,117.89ZM37.87,98,36,107,18.67,112l-4.76-9.7Z" style="fill: #ea6399"></path>
    <path d="M28.94,60.31l-5.51,1-1-5.51a.32.32,0,0,0-.63.11l1,5.51-5.51,1a.32.32,0,1,0,.11.63l5.51-1,1,5.51a.32.32,0,1,0,.63-.11l-1-5.51,5.51-1A.32.32,0,1,0,28.94,60.31Z" style="fill: #ea6399"></path>
    <path d="M194.69,108.47l-9.91,1.75L183,100.31a.32.32,0,0,0-.63.11l1.74,9.91-9.91,1.75a.32.32,0,0,0,.11.63l9.91-1.75,1.75,9.91a.32.32,0,1,0,.63-.11l-1.75-9.91,9.91-1.74A.32.32,0,0,0,194.69,108.47Z" style="fill: #ea6399"></path>
    <path d="M135.41,59.57a7.23,7.23,0,0,1-.53-1.33.32.32,0,0,0-.62.18.24.24,0,0,1,0,.08c-3.18,1.78-5.05,0-2.46-1.49-1.55.3-2.77-1-.54-2.39a1.91,1.91,0,0,1-.53-.1c-.47.47-1.34.11-2.16-3.14a6.57,6.57,0,0,1-.25,4.56,12.61,12.61,0,0,0,1.81,5.79.32.32,0,0,0,.32.14,17,17,0,0,0,4.84-1.9A.31.31,0,0,0,135.41,59.57Z" style="fill: #ea6399"></path>
    <path d="M146.67,56.18c2.67,1,2.93-5.79,2.86-8.66,3.5-2.79,3-6.68-1.05-8.53-.89-4-2.48-8.17-4.31-7.94-.66.08-.18-.25-9.21,9.58L123.74,42a4.37,4.37,0,0,0-3.09,6.79l-5.59,1a.32.32,0,0,0,.12.63l5.92-1a4,4,0,0,0,3.16,1.22.32.32,0,0,0,.31-.32c0-.18-.17-.35-.33-.32-4.65.11-5-6.76-.43-7.31l.27,0a9.24,9.24,0,0,0,.69,7,.32.32,0,0,0,.59-.09,11.87,11.87,0,0,1,3.77-.76c1.1-.11,1.24.21,1.41.79.11.39.07.5.23.57a.26.26,0,0,0,.21,0,5.83,5.83,0,0,1,3-.86.32.32,0,0,0,.32.16l1.68-.21,9.93,6.56,14.38,81.52-12.47,2.2a.32.32,0,0,0,.11.63c13.66-2.46,12.88-2.22,13-2.38S161.66,141.2,146.67,56.18ZM151.2,43c.3,2.5-2.22,4.1-2.27,4.2a11.83,11.83,0,0,1-5.12,2,46.19,46.19,0,0,1-1.29-10.52C147,38.36,150.86,40.24,151.2,43Zm-14.91,5.62c-1.45-1.46-1.95-5.62-.92-7.48l7-7.66c-1.68,6.37.89,16.44.85,16.17a.16.16,0,0,0,0,.09A20.89,20.89,0,0,0,145,54.34Z" style="fill: #ea6399"></path>
    <path d="M87.93,102.56a52.56,52.56,0,0,0-6.12-.31.32.32,0,0,1,0-.64,53,53,0,0,1,6.17.31A.32.32,0,0,1,87.93,102.56Z" style="fill: #8b0045"></path>
    <path d="M86.84,58.57c6.19-2.42,7.66-7.11,8.9-12-3.44-1.11-1.94-4.53-.2-3.21s1.1-.45.94-2.27A30.53,30.53,0,0,1,103.26,40c3.1,9.37,2.84,15.76-5.74,10.73a10.11,10.11,0,0,0,2.07,3.21A7.67,7.67,0,0,0,104,60l1,.59a29.41,29.41,0,0,1-1.49,8.51c-4.11-3.27-12-8.23-17.72-10.12Z" style="fill: #ffd1d0"></path>
    <path d="M146,155.89a.31.31,0,0,0,.18-.24c1-5.81,3.56-28.66,3.9-36,.29-6.53-.39-10.48-17.21-20.82,2-1.67,2.41-6,2.18-32.55,0-1.3-2.65-1.63-4.12-1.76-.55-3-.29-2.69-.49-2.66s-.39-.23-.54-.48c-.11,1.17.77,5,1,6.56a36.8,36.8,0,0,1-10,.54c-.12-1.53-.42-4.16-.47-6.5-.1-4.25.22-5.22,1.26-7.14a26.29,26.29,0,0,1,3.49-5.09c.66-.59,2.55-.76,4-.89,1.08-.11,1.16.2,1.31.71a16.36,16.36,0,0,1,.34,4c0,.43-.23.79-.39.81s-.87-.59-1.5-3.08a.32.32,0,0,0-.63.15c.67,3.09.09,5.2-1.78,6.47a.32.32,0,0,0,.36.53A5.21,5.21,0,0,0,129.2,54c.34.61.69,1,1.07,1-1,1-.55,2,.58,2.3-1.12,1.08-.45,2.26.94,2.26a6.2,6.2,0,0,0,3-1,1.7,1.7,0,0,0,.31-2.7,1.67,1.67,0,0,0,0-2.51,1.72,1.72,0,0,0-.16-2.36,1.4,1.4,0,0,0-1.14-2.33,6.81,6.81,0,0,0-2.65.73c-.25-.84-.65-1.32-2-1.18-1.64.15-3.49.32-4.3,1.05a26.67,26.67,0,0,0-3.64,5.27c-1.2,2.22-1.7,3.89-1.15,10.71-1.55.35-3.21,1.1-3.13,2.15,0,.06,0-.09.58,3.41a34.89,34.89,0,0,0-10.05-9.2,3.13,3.13,0,0,0,1.67-2.77,3.7,3.7,0,0,0,5.13-4.2c2.93-.33,3.63-3.56,2.11-5.57a2.59,2.59,0,0,0,.76-4.66,2.86,2.86,0,0,0,.7-4.82c2.53-1.36,1.7-4.71-.48-6,1.83-1.47,1.2-4.91-1.39-5.26a3.2,3.2,0,0,0-3.23-4.84c.22-2.66-1.68-4.4-4.53-3.42a3.47,3.47,0,0,0-5.53-2.53c-1-2.79-4.16-3.72-6.72-1.21-1.1-2.69-5.45-2.85-6.44-.11-2.21-2.08-6.2-.88-6.56,1.88-2.83-2.14-6.35.54-6.51,3.69-2.89-1.1-5.53,2.55-4.62,5.39-3.49.74-4.43,4.17-2.3,6.53-3.06,1.37-2.89,4.61-.69,6.42-2.4,2-1.78,5.47,1.15,6.28a4.18,4.18,0,0,0,3.34,6.4c-1.28,2.91,1,5.8,3.93,5a3.55,3.55,0,0,0,1.31,3.48c-6.25,2.3-12.55,4.74-17.51,7.94-7.19,4.65-10.19,10.27-4.83,16.94,4.15,5.15,7.19,9,13.47,15.6.89,1.2,2.62,1,4.06.54a12.77,12.77,0,0,0,2.26,1.36,4.88,4.88,0,0,0,1.81,4.5,2.13,2.13,0,0,0,2.43.36,2.55,2.55,0,0,0,2.65.29c1.35.73,2.39.74,3.41-.48,0,1.86,0,10.11,1.79,10.11.39,0,.72-.38.87-1,.29,1.37.64,2.8,1.06,4.28-5.11-2.89-19.1-11.6-19.44-11.43s-1,.59-1.49.89c-1.67-1.36-3.28-3.19-3.72-3.07C58.41,110.1,43.85,120.77,41,126a.32.32,0,0,0,.24.47c8.54,1.18,14.37-1.94,19.86-2.8a17.37,17.37,0,0,0-.2,3A.33.33,0,0,0,61,127c2.55,2,23.17,17,31.89,22.58,10.55,6.81,18.42,3.37,19.57-6.78.43-3.79,1.24-13.91,1.93-22.76,0,0,12.71,3.31,15.58,4-.37,3.57-2.47,21.66-2.47,21.68-.81,7-.81,6.57-.63,6.72a15.75,15.75,0,0,0,1.67,1.2c-1.14,3.34-3.77,6.1-3.49,6.68,3.05,6.4,15.05,16.94,21.65,20.94a.33.33,0,0,0,.49-.29c-.42-11.23-7.38-16.95-6.94-24.08A14.07,14.07,0,0,0,146,155.89ZM134.39,58a6,6,0,0,1-2.31.88c-.61.1-1-.12-1.14-.37s.12-.71,1-1.23a7.69,7.69,0,0,0,2.64-1A1,1,0,0,1,134.39,58Zm-.29-4.64a5.53,5.53,0,0,1-2.79.88,5,5,0,0,0,.14-1.91,9.23,9.23,0,0,0,3-.91C135,51.84,135,52.83,134.1,53.4Zm-.33-4.08c1.07,0,1,1.3,0,1.73a8.91,8.91,0,0,1-2.37.67,12.61,12.61,0,0,0-.19-1.65A5.93,5.93,0,0,1,133.77,49.32Zm-2.36,5.6a6.13,6.13,0,0,0,3.17-1.08.72.72,0,0,1,.38.58c.14.95-.91,1.47-1.8,1.85-1.1.46-2.46.77-2.75,0C130.3,56,130.5,55.51,131.41,54.92Zm3,12.32q0,2.94,0,5.52c-2.34,2.81-11.27,3.28-15.84,1.49-.31-1.89-.68-4.22-1-5.83C120.27,69.76,131.4,69.6,134.45,67.24ZM96.06,46.66a.32.32,0,0,0-.21-.38c-2.92-.94-1.85-3.69-.5-2.66.44.34.94.65,1.33.43.57-.33.29-1.37.15-2.71a28.41,28.41,0,0,1,6.2-1.06c2.93,9,2.83,14.86-5.35,10.13a.32.32,0,0,0-.46.39,10.58,10.58,0,0,0,2.07,3.26c.46,3.44,2.32,5,5.38,6.71a29.74,29.74,0,0,1-1.31,7.81A71.34,71.34,0,0,0,86.72,59C92.69,56.64,94.49,52.83,96.06,46.66ZM65.13,96c-3.42-3.84-5.55-6.54-8.49-10.19-4.1-5.1-3.88-10.47,4.67-16,6.86-4.42,16.38-7.41,24.48-10.5,5.51,1.84,13.12,6.53,17.52,10a.32.32,0,0,0,.5-.13,28.79,28.79,0,0,0,1.49-8.09,35.24,35.24,0,0,1,12.37,11.15c.68,4.2,2,12.34,2.47,14.65a.32.32,0,0,0,.63-.13c-.4-1.84-1.25-7.11-2-11.83,4.17,1.46,12.54,1.44,15.73-1.31.08,20.38-.44,23.56-2.18,24.82-4-2.42-8.81-5.19-14.7-8.41a75.44,75.44,0,0,1-3-7.8c-.88-11.91-3.66-14.49-6.36-17l-.3-.27a.32.32,0,1,0-.44.46c2.83,2.63,4.45,4.48,5.6,10.15a75.7,75.7,0,0,1,1.14,13C111.56,93,101.59,93.79,96,92.06c-2.69-3.14-6.37-7.16-9.35-10.19a56.26,56.26,0,0,0,2.85-5.3.32.32,0,0,0-.37-.44c-3.38.94-12.94,3.86-15.37,4.7-1.1-1.25-2.07-2.32-2.78-3.07a.32.32,0,0,0-.46.45c1.65,1.74,4.79,5.34,7.61,8.64C72.43,86.17,65.68,91.88,65.13,96Zm18.63-3.59C81,89.17,77.41,85,74.25,81.35c1.52-.51,5-1.58,8.26-2.59A165.21,165.21,0,0,1,95.39,92.3a19.21,19.21,0,0,0-6.07,8.32c-.44-.59-.82-.81-5.46-5.33A2,2,0,0,0,83.76,92.42ZM70,98.17a5.17,5.17,0,0,0-.75,2.31q-1.92-2-3.49-3.79c-.22-3.79,7.14-10.41,13.08-9.08l3.46,4a6.25,6.25,0,0,0-2.15-.08.31.31,0,0,0-.23,0A15.28,15.28,0,0,0,70.07,98,.42.42,0,0,0,70,98.17Zm18.32,19a1.23,1.23,0,0,1-.27.71s-1.26-.48-1.15-10.43A19.21,19.21,0,0,0,88,105.07a.32.32,0,0,0-.59-.24c-.46,1.12-1.43,3.45-2.55,3.83a1.86,1.86,0,0,1-1.48-.23,12,12,0,0,0,2-3.49.32.32,0,0,0-.59-.25c-1,2.41-1.76,3.5-2.5,3.75a2,2,0,0,1-1.54-.31,14.68,14.68,0,0,0,2-3.41.32.32,0,0,0-.58-.27c-.47,1-1.56,3.44-2.53,3.71-.37.11-.81,0-1.46-.47a4.3,4.3,0,0,1-1.54-3.7,11.59,11.59,0,0,0,2.14.63c0,.07-.27.66-.29.73a.32.32,0,1,0,.6.22c.08-.22.67-1.6.8-2a.32.32,0,0,0-.61-.2c0,.12-.14.37-.25.65a13,13,0,0,1-8.27-5.78,14.81,14.81,0,0,1,9.27-6c1.24,1.34,3.19,3.25,3.26,3.31,5.2,5.08,5.38,5,5.88,5.88a5,5,0,0,1,.57,3C89.55,106.18,88.49,115.78,88.3,117.15Zm-5.21,1.39c1.76,1.76,5.19,5.27,8.86,9.36.21.56.42,1.12.64,1.69a.32.32,0,0,0,.6-.23,72.93,72.93,0,0,1-4-13.89c.37-3.25,1.06-9.6,1.15-11a6.21,6.21,0,0,0-.55-3.2,18.63,18.63,0,0,1,6.17-8.62,21.09,21.09,0,0,0,2.08.5c-6.93,10.88-4.46,27.53-1.2,43.78-5.15-3.28-25.47-15.85-27.17-17a14,14,0,0,1,6.48-5.58Zm-12.55-7.43L75.41,114c-5.44,2.32-9.54,9.76-9.77,15.63-2.06-1.5-3.55-2.61-4.14-3.06A17.44,17.44,0,0,1,70.54,111.11Zm60.08,12.68a.33.33,0,0,0-.25-.34l-1.58-.39a69.09,69.09,0,0,1-13.85-10.37c.25-3.18.45-5.73.56-7a.32.32,0,0,0-.64-.06c-.17,2-2.56,32.67-3.06,37.1-1,9.27-8.06,13.1-18.58,6.31-6.74-4.35-19.77-13.69-26.95-18.93a19.24,19.24,0,0,1,3-9.56c3.37,2.29,17.15,10.61,27.81,17.41a.32.32,0,0,0,.49-.33c-3.33-16.47-6-33.44,1.11-44.28,5,.74,13.2-.07,15.94-4.13,32.46,17.57,35.22,22,34.83,30.45-.25,5.56-1.78,20.08-2.94,29.26-5.31,2-14.94.22-18.37-3.4C128.67,140.93,130.45,125.58,130.62,123.79ZM127.4,152c.15-1.32.38-3.35.66-5.73,3.82,3.53,12.9,5.19,18.37,3.32-.31,2.46-.6,4.48-.82,5.76C141.4,157.2,132.34,156,127.4,152Z" style="fill: #8b0045"></path>
  </g></g></g></svg>